<svg width="44" height="44" viewBox="0 0 44 44" fill="none" xmlns="http://www.w3.org/2000/svg">
<path d="M17.6344 6.08435H7.975C6.05 6.08435 4.46875 7.6656 4.46875 9.62498C4.4 11.5156 5.9125 13.0968 7.80312 13.1656H17.7375L17.6344 6.08435Z" fill="#073042"/>
<path d="M39.5312 37.572H7.975C6.01563 37.572 4.46875 35.9908 4.46875 34.0314V9.59076C4.46875 11.5501 6.05 13.1314 7.975 13.1658H34.4094C34.4094 13.1658 39.5656 12.7189 39.5656 16.6033V37.572H39.5312Z" fill="#4285F4"/>
<path d="M24.8187 25.0593C26.2281 23.9937 26.5031 21.9999 25.4374 20.6249C24.8531 19.8687 23.9593 19.3874 22.9968 19.353H23.0999C23.2718 19.3187 23.4781 19.3187 23.6499 19.353V17.3937C23.6499 17.153 23.5468 16.9468 23.3406 16.8437C23.0312 16.6718 22.6531 16.7749 22.4812 17.0843C22.4124 17.1874 22.3781 17.2905 22.4124 17.428V19.4218C20.6937 19.6968 19.4906 21.3124 19.7656 23.0655V23.0999C19.9031 23.9249 20.3499 24.6812 21.0374 25.1624L15.2281 37.6062H19.0093L21.6906 31.8999C21.9999 31.2124 22.8249 30.903 23.5468 31.2468C23.8218 31.3843 24.0624 31.6249 24.1999 31.8999L26.9843 37.6062H30.8343L24.8187 25.0593ZM22.8593 24.5093C21.7593 24.5093 20.8999 23.6155 20.8999 22.5155C20.8999 21.4155 21.7937 20.5562 22.8937 20.5905C23.4093 20.5905 23.8562 20.7968 24.2343 21.1405C25.0249 21.8968 25.0249 23.1343 24.2687 23.9249C23.9249 24.2687 23.4093 24.5093 22.8593 24.5093Z" fill="#3870B2"/>
<path d="M15.5375 7.8031H29.0813V10.2781H15.5375V7.8031Z" fill="white"/>
<path d="M21.8281 20.5562C22.8937 20.5562 23.7875 21.45 23.7531 22.55C23.7531 23.6156 22.8594 24.5094 21.7594 24.475C20.6937 24.475 19.8344 23.5812 19.8344 22.5156C19.8344 22 20.0406 21.5187 20.4187 21.1406C20.7969 20.7625 21.3125 20.5562 21.8281 20.5562ZM22.5844 19.4219V17.3594C22.5844 17.1187 22.4812 16.9125 22.275 16.8094C21.9656 16.6375 21.5875 16.7406 21.4156 17.05C21.3469 17.1531 21.3125 17.2562 21.3469 17.3937V19.3875C19.6281 19.6625 18.425 21.2781 18.7 23.0312V23.0656C18.8375 23.8906 19.2844 24.6469 19.9719 25.1281L12.65 40.8375C12.375 41.3875 12.4094 42.075 12.7875 42.5906C13.3375 43.3812 14.4031 43.5875 15.1937 43.0375C15.4687 42.8656 15.675 42.5906 15.8125 42.3156L20.6937 31.8656C21.0031 31.1781 21.8281 30.8687 22.55 31.2125C22.825 31.35 23.0656 31.5906 23.2031 31.8656L28.1875 42.2125C28.6 43.0719 29.6312 43.4156 30.4906 43.0031C31.35 42.5906 31.6937 41.5594 31.2812 40.7L23.7531 25.0594C25.1281 23.9594 25.3687 21.9312 24.2687 20.5562C23.8562 20.0062 23.2719 19.6281 22.5844 19.4219Z" fill="#073042"/>
<path d="M27.0875 10.0031C26.5719 10.0031 26.1594 9.625 26.1594 9.10938C26.1594 8.86875 26.2625 8.59375 26.4344 8.42188C26.8125 8.07812 27.3625 8.07812 27.7406 8.42188C27.9125 8.59375 28.0156 8.83437 28.0156 9.075C27.9813 9.59062 27.6031 9.96875 27.0875 10.0031ZM16.9125 9.96875C16.3969 9.96875 15.9844 9.55625 15.9844 9.075C15.9844 8.83437 16.0875 8.59375 16.2594 8.42188C16.5688 8.04375 17.1531 7.975 17.5313 8.28438H17.5656C17.9438 8.62813 17.9781 9.2125 17.6344 9.59062L17.5313 9.72812C17.3594 9.9 17.1188 10.0031 16.8781 10.0031M27.3625 4.43437L29.1844 1.27188C29.2875 1.1 29.2188 0.89375 29.0813 0.75625C28.9094 0.6875 28.7375 0.721875 28.6344 0.859375L26.7438 4.125C23.7188 2.78437 20.2813 2.78437 17.2906 4.125L15.4344 0.89375C15.3656 0.790625 15.2281 0.6875 15.0906 0.6875C14.9531 0.6875 14.8156 0.75625 14.7469 0.89375C14.6781 0.996875 14.6781 1.16875 14.7469 1.27188L16.6031 4.43437C13.3719 6.1875 11.275 9.4875 10.9656 13.1313H33.0344C32.7594 9.45312 30.6281 6.1875 27.3969 4.43437" fill="#3DDC84"/>
<path d="M36.3 19.9719H34.8563C34.7875 20.0063 34.7188 20.075 34.7188 20.1781V43.0375C34.7188 43.1406 34.7875 43.2094 34.8906 43.2094H36.4031C38.1563 43.2094 39.5656 41.7656 39.5656 40.0469V16.775C39.5656 18.5281 38.1563 19.9375 36.4031 19.9375H36.3V19.9719Z" fill="#073042"/>
</svg>
