<svg width="44" height="44" viewBox="0 0 44 44" fill="none" xmlns="http://www.w3.org/2000/svg">
<path d="M5.63722 41.3231C4.89609 41.3231 4.68056 40.8917 4.68056 40.2451C4.68056 40.0296 4.70771 39.7865 4.74106 39.5304C4.90331 38.4122 5.29965 37.7725 6.25631 37.7725C6.90325 37.7725 7.21881 38.0619 7.21881 38.5875V38.8436H7.86059C7.86781 38.8436 7.86781 38.6078 7.86781 38.5542C7.86781 37.7863 7.40271 37.0578 6.25734 37.0578C4.70084 37.0578 4.06078 37.9035 3.82496 39.561C3.7903 39.7766 3.77226 39.9945 3.771 40.2128C3.771 41.1897 4.15531 42.0783 5.52962 42.0783C6.57393 42.0783 7.19406 41.5692 7.55775 40.9426L6.9445 40.5297C6.54712 41.1564 6.11572 41.3231 5.63722 41.3231ZM9.8485 38.2373C8.60172 38.2373 8.06306 38.877 7.88122 40.1502C7.86059 40.2991 7.84718 40.4538 7.84718 40.595C7.84718 41.4169 8.23115 42.0708 9.2954 42.0708C10.5422 42.0708 11.0881 41.4035 11.2699 40.1502C11.2902 39.9887 11.3036 39.8405 11.3036 39.6923C11.3039 38.857 10.9066 38.2373 9.8485 38.2373ZM10.3672 40.1506C10.2325 41.0739 9.94303 41.3568 9.39681 41.3568C8.95922 41.3568 8.74368 41.1749 8.74368 40.6291C8.74368 40.4943 8.75743 40.3328 8.78425 40.1506C8.919 39.2345 9.1885 38.9516 9.7409 38.9516C10.1857 38.9516 10.4078 39.1334 10.4078 39.6858C10.4078 39.8206 10.394 39.9756 10.3672 40.1506ZM14.4376 37.1249L14.2289 38.3617C14.2155 38.4693 14.2224 38.4335 14.2629 38.5346C14.0677 38.3864 13.7171 38.2885 13.4812 38.2885C12.3627 38.2885 11.7364 38.7948 11.5342 40.2097C11.5074 40.3781 11.5006 40.5201 11.5006 40.6614C11.5006 41.6926 12.1069 42.0769 12.922 42.0769C13.2661 42.0769 13.6026 42.0842 13.8652 41.8621L13.9322 42.2811H14.5792L15.3337 37.1249H14.4376ZM13.7975 41.1612C13.5616 41.3036 13.292 41.3804 13.0165 41.3836C12.5246 41.3836 12.3898 41.1275 12.3898 40.7167C12.3898 40.5617 12.4101 40.3802 12.4373 40.1843C12.592 39.1131 12.9357 38.9241 13.3805 38.9241C13.67 38.9241 13.892 38.9715 14.1014 39.0863L13.7975 41.1612ZM17.3013 38.2373C16.068 38.2373 15.4891 38.823 15.2935 40.1502C15.2729 40.3121 15.2595 40.4672 15.2595 40.6153C15.2595 41.5249 15.7246 42.0708 16.7482 42.0708C17.5433 42.0708 18.1367 41.7404 18.4532 41.134L17.7726 40.8577C17.5774 41.154 17.3147 41.3561 16.8497 41.3561C16.3512 41.3561 16.1491 41.222 16.1491 40.7772C16.1491 40.6896 16.156 40.562 16.1694 40.562H18.6014C18.6354 40.2183 18.6753 39.9753 18.6753 39.7738C18.6753 39.1004 18.4196 38.2373 17.3013 38.2373ZM17.7661 39.8749H16.2838C16.4323 39.5311 16.6812 38.999 17.1934 38.999C17.5908 38.999 17.7864 39.2314 17.7864 39.6287C17.786 39.6961 17.7798 39.8749 17.7661 39.8749ZM21.2682 38.1561L21.349 37.4686H19.4487L19.3683 38.1561H19.8667L19.3281 41.5936H18.829L18.7485 42.2811H20.6484L20.7296 41.5936H20.2308L20.7694 38.1561H21.2682ZM25.1292 39.1874L25.3719 38.4999H24.7184L24.2472 38.5972C23.9842 38.4291 23.627 38.3029 23.2905 38.3029C22.3266 38.3029 21.5051 38.7683 21.5051 39.8264C21.5051 40.1231 21.6127 40.3627 21.7405 40.5246C21.5387 40.6322 21.3634 40.8123 21.3634 41.0553C21.3634 41.1629 21.4037 41.2733 21.4848 41.374C21.0802 41.617 20.8317 42.0195 20.8317 42.4908C20.8317 43.4007 21.7814 43.5949 22.5092 43.5949C23.4252 43.5949 24.517 43.3856 24.517 42.2199C24.517 41.8226 24.2678 41.5122 23.5469 41.3774L22.2465 41.1344C22.0984 41.1072 22.0647 41.0601 22.0647 40.9928C22.0647 40.8917 22.1259 40.8381 22.2266 40.8381L22.3142 40.8515C22.4896 40.8917 22.6917 40.9123 22.9003 40.9123C23.8371 40.9123 24.6724 40.5077 24.6724 39.4569C24.6724 39.3084 24.6456 39.208 24.5782 39.0461C24.6927 39.1001 24.8412 39.1877 24.9013 39.1877H25.1292V39.1874ZM23.2767 41.9762C23.5325 42.0237 23.6198 42.1178 23.6198 42.2863C23.6198 42.8322 23.0337 42.8995 22.6095 42.8995C21.9626 42.8995 21.7202 42.7448 21.7202 42.4008C21.7202 42.0976 21.8076 41.9563 22.01 41.7404L23.2767 41.9762ZM23 40.2114C22.6092 40.2114 22.3937 40.0701 22.3937 39.7329C22.3937 39.2345 22.6834 38.9447 23.1887 38.9447C23.593 38.9447 23.7886 39.1131 23.7886 39.4428C23.7886 39.9416 23.5053 40.2114 23 40.2114ZM27.5227 38.2373C27.1453 38.2373 26.8088 38.4225 26.3908 38.7522L26.3303 38.4999H25.5888L25.0701 42.2811H25.9662L26.3571 39.4136C26.6201 39.252 26.9432 39.0172 27.2196 39.0172C27.5561 39.0172 27.6778 39.1798 27.6778 39.4895C27.6778 39.5638 27.6706 39.7834 27.6572 39.8642L27.3275 42.2811H28.2237L28.5533 39.8446C28.5671 39.7305 28.5805 39.5428 28.5805 39.4352C28.5808 38.7945 28.2773 38.2373 27.5227 38.2373ZM30.2827 41.3338L30.2896 41.2413L30.6801 38.4999H29.191L29.0971 39.1874H29.7502C29.6963 39.1874 29.6626 39.2475 29.6561 39.3018L29.3866 41.1275C29.3736 41.2419 29.367 41.3568 29.3666 41.4719C29.3666 41.9436 29.6224 42.2811 30.1476 42.2811H30.6058L30.7069 41.5936H30.4175C30.3161 41.5936 30.2827 41.4145 30.2827 41.3338ZM30.8619 37.1249H29.9861C29.9321 37.1249 29.9321 36.9265 29.9256 36.9939L29.8039 37.9626C29.797 38.0234 29.797 38.1561 29.851 38.1561H30.7272C30.7812 38.1561 30.7812 37.9207 30.7877 37.8595L30.9094 37.1118C30.9162 37.0444 30.9162 37.1249 30.8619 37.1249ZM32.6893 41.3568C32.4672 41.3568 32.3593 41.2622 32.3593 41.0605L32.3662 41.0467L32.6491 39.1874H33.6731L33.9828 38.4999H32.7433L32.9519 36.987L32.009 37.2885L31.8402 38.4999H31.2947L31.2005 39.1874H31.8337C31.7732 39.5311 31.7124 39.308 31.7058 39.3758L31.4632 41.0062C31.4497 41.0804 31.4497 41.1344 31.4497 41.2014C31.4497 41.8415 31.9214 42.0811 32.4879 42.0811C33.0131 42.0811 33.4377 41.9278 33.768 41.651L33.35 41.1368C33.1407 41.2647 32.9994 41.3568 32.6893 41.3568ZM35.9773 38.2373C34.7442 38.2373 34.165 38.823 33.9694 40.1502C33.9492 40.3121 33.9357 40.4672 33.9357 40.6153C33.9357 41.5249 34.4005 42.0708 35.4245 42.0708C36.2196 42.0708 36.8129 41.7404 37.1292 41.134L36.4489 40.8577C36.2537 41.154 35.9907 41.3561 35.5256 41.3561C35.0275 41.3561 34.825 41.222 34.825 40.7772C34.825 40.6896 34.8322 40.562 34.8457 40.562H37.2777C37.3114 40.2183 37.3519 39.9753 37.3519 39.7738C37.3519 39.1004 37.0958 38.2373 35.9773 38.2373ZM36.4424 39.8749H34.9601C35.1083 39.5311 35.3572 38.999 35.8697 38.999C36.2671 38.999 36.4627 39.2314 36.4627 39.6287C36.4623 39.6961 36.4558 39.8749 36.4424 39.8749ZM39.8314 38.2373C39.5079 38.2373 39.2048 38.4225 38.9016 38.7116L38.8476 38.4999H38.1068L37.5877 42.2811H38.4908L38.8882 39.3531C39.124 39.2118 39.3935 39.0911 39.6496 39.0911C39.8115 39.0911 39.9662 39.0653 40.1143 39.0856L40.2295 38.3043C40.094 38.2775 39.9593 38.2373 39.8314 38.2373ZM16.9504 34.4165C14.9109 33.5351 13.0024 31.2945 12.9979 29.0021C12.9924 26.5027 14.5764 24.3807 16.5465 22.9861C16.3096 23.8809 16.1804 24.6993 16.7672 25.4996C17.0384 25.8655 17.409 26.1458 17.835 26.3071C18.261 26.4683 18.7244 26.5038 19.17 26.4092C21.2778 25.9478 21.3744 23.6306 20.1249 22.2807C18.8895 20.9439 17.6942 19.4338 18.1645 17.495C18.4 16.5233 18.9967 15.613 19.7526 14.9623C19.1717 16.4892 20.8227 17.9952 21.9107 18.7453C23.7979 20.0467 25.8683 21.0302 27.6035 22.5557C29.4288 24.159 30.7767 26.327 30.5044 28.8412C30.2095 31.5664 28.0439 33.4619 25.6149 34.4189C30.7478 33.2859 36.0515 29.3022 36.1602 23.6093C36.2502 18.9261 33.0375 15.3218 29.0576 13.2583L28.8496 13.1449C28.9589 13.4099 28.9947 13.6354 28.9906 13.8372C29.0275 13.6865 29.0498 13.5326 29.0572 13.3776C29.0563 13.5651 29.0318 13.7517 28.9844 13.9331L28.9906 13.8372C28.9315 14.0858 28.832 14.3231 28.696 14.5395L28.7544 14.4766C27.9603 15.7935 25.8109 16.0795 24.749 14.7158C23.042 12.5223 24.7848 10.1573 25.0285 7.83463C25.3337 4.92341 23.5081 2.09744 21.2445 0.406189C22.4913 2.42297 20.8488 5.09116 19.5347 6.58269C18.2604 8.02885 16.7108 9.2361 15.3042 10.5499C13.793 11.961 12.3403 13.4474 11.0984 15.1036C8.61443 18.4183 7.09368 22.5873 8.21122 26.723C9.32806 30.8556 12.9079 33.4863 16.9504 34.4165Z" fill="#EE4323"/>
</svg>
