<svg width="44" height="44" viewBox="0 0 44 44" fill="none" xmlns="http://www.w3.org/2000/svg">
<path d="M6.46723 39.2296L3.01117 0.4646H40.9887L37.5292 39.2238L21.9769 43.5354L6.46723 39.2296Z" fill="#1572B6"/>
<path d="M22.0003 40.2402L34.5675 36.7559L37.5241 3.63422H22.0003V40.2402Z" fill="#33A9DC"/>
<path d="M22.0003 17.6786H28.2916L28.7261 12.81H22.0003V8.05563H33.9223L33.8081 9.33129L32.6394 22.433H22.0003V17.6786Z" fill="white"/>
<path d="M22.0285 30.0261L22.0075 30.0323L16.7128 28.6027L16.3742 24.8108H11.6022L12.2681 32.276L22.0069 34.9789L22.0285 34.9727V30.0261Z" fill="#EBEBEB"/>
<path d="M27.8874 22.232L27.3147 28.599L22.012 30.0303V34.9769L31.7587 32.2757L31.8302 31.4724L32.6573 22.232H27.8874Z" fill="white"/>
<path d="M22.0164 8.05563V12.81H10.5324L10.4372 11.7417L10.2207 9.33129L10.1069 8.05563H22.0164ZM22.0003 17.6793V22.4337H16.7722L16.677 21.3653L16.4601 18.9549L16.3466 17.6793H22.0003Z" fill="#EBEBEB"/>
</svg>
