<svg width="44" height="45" viewBox="0 0 44 45" fill="none" xmlns="http://www.w3.org/2000/svg">
<path d="M15.6406 44.3438C19.7312 44.3438 23.0312 41.0437 23.0312 36.9531V29.5625H15.6406C11.55 29.5625 8.25 32.8625 8.25 36.9531C8.25 41.0437 11.55 44.3438 15.6406 44.3438Z" fill="#0ACF83"/>
<path d="M8.25 22.1719C8.25 18.0813 11.55 14.7812 15.6406 14.7812H23.0312V29.5625H15.6406C11.55 29.5625 8.25 26.2625 8.25 22.1719Z" fill="#A259FF"/>
<path d="M8.25 7.39062C8.25 3.3 11.55 0 15.6406 0H23.0312V14.7812H15.6406C11.55 14.7812 8.25 11.4812 8.25 7.39062Z" fill="#F24E1E"/>
<path d="M23.0312 0H30.4219C34.5125 0 37.8125 3.3 37.8125 7.39062C37.8125 11.4812 34.5125 14.7812 30.4219 14.7812H23.0312V0Z" fill="#FF7262"/>
<path d="M37.8125 22.1719C37.8125 26.2625 34.5125 29.5625 30.4219 29.5625C26.3313 29.5625 23.0312 26.2625 23.0312 22.1719C23.0312 18.0813 26.3313 14.7812 30.4219 14.7812C34.5125 14.7812 37.8125 18.0813 37.8125 22.1719Z" fill="#1ABCFE"/>
</svg>
