<svg width="44" height="44" viewBox="0 0 44 44" fill="none" xmlns="http://www.w3.org/2000/svg">
<path d="M6.54396 39.1449L3.10474 0.570984H40.8952L37.4522 39.139L21.977 43.429L6.54396 39.1449Z" fill="#E44D26"/>
<path d="M22 40.15L34.5049 36.6829L37.4471 3.72488H22V40.15Z" fill="#F16529"/>
<path d="M22 18.0314H15.7396L15.3072 13.1866H22V8.4559H10.1368L10.2503 9.72503L11.4128 22.7624H22V18.0314ZM22 30.3181L21.979 30.3239L16.7104 28.9008L16.3738 25.1281H11.6242L12.287 32.5562L21.9783 35.2464L22 35.2406V30.3181Z" fill="#EBEBEB"/>
<path d="M21.9835 18.0314V22.7624H27.8091L27.2601 28.898L21.9835 30.3222V35.2443L31.6824 32.5562L31.7536 31.757L32.8653 19.3019L32.9804 18.0314H31.7058H21.9835ZM21.9835 8.4559V13.1866H33.4111L33.506 12.1237L33.7219 9.72503L33.835 8.4559H21.9835Z" fill="white"/>
</svg>
