<svg width="44" height="44" viewBox="0 0 44 44" fill="none" xmlns="http://www.w3.org/2000/svg">
<path d="M16.3684 33.7288C16.3684 33.7288 14.7297 34.6823 17.5361 35.0041C20.9364 35.3925 22.6741 35.3368 26.4203 34.6287C26.4203 34.6287 27.4072 35.2457 28.7829 35.7806C20.382 39.3797 9.77076 35.572 16.3684 33.7288ZM15.3412 29.0314C15.3412 29.0314 13.5029 30.3923 16.3116 30.6832C19.944 31.0582 22.8119 31.0888 27.7771 30.1332C27.7771 30.1332 28.4622 30.8292 29.5412 31.2094C19.3861 34.1794 8.07539 31.4432 15.3412 29.0314Z" fill="#0074BD"/>
<path d="M23.9944 21.0619C26.0655 23.4458 23.4513 25.5891 23.4513 25.5891C23.4513 25.5891 28.7069 22.8766 26.2938 19.4782C24.0391 16.3106 22.3107 14.7372 31.6683 9.31012C31.6683 9.31046 16.9795 12.9779 23.9944 21.0619Z" fill="#EA2D2E"/>
<path d="M35.1048 37.2037C35.1048 37.2037 36.3179 38.204 33.7683 38.9771C28.9207 40.4456 13.5881 40.8884 9.32971 39.0359C7.79968 38.3697 10.67 37.4461 11.573 37.2512C12.5146 37.0473 13.0522 37.0844 13.0522 37.0844C11.3496 35.8858 2.04771 39.4391 8.32802 40.4583C25.454 43.2345 39.5464 39.2081 35.1048 37.2037ZM17.1572 24.1636C17.1572 24.1636 9.35893 26.016 14.3959 26.6894C16.523 26.9741 20.7615 26.9087 24.7122 26.5774C27.94 26.3062 31.1791 25.7269 31.1791 25.7269C31.1791 25.7269 30.042 26.2147 29.2184 26.7764C21.2977 28.8599 6.00014 27.8895 10.4046 25.7596C14.1281 23.9587 17.1572 24.1636 17.1572 24.1636ZM31.1468 31.9828C39.1978 27.8004 35.475 23.781 32.8766 24.3224C32.2413 24.4547 31.9564 24.5699 31.9564 24.5699C31.9564 24.5699 32.1929 24.199 32.6439 24.0395C37.784 22.2331 41.7364 29.3686 30.986 32.1949C30.986 32.1942 31.1094 32.0825 31.1468 31.9828Z" fill="#0074BD"/>
<path d="M26.2938 0.545532C26.2938 0.545532 30.7515 5.00603 22.0646 11.8628C15.0982 17.3649 20.4762 20.5013 22.0622 24.0862C17.9953 20.4174 15.0122 17.1872 17.0132 14.1811C19.9516 9.76938 28.0919 7.62953 26.2938 0.545532Z" fill="#EA2D2E"/>
<path d="M17.9486 43.3197C25.6747 43.8137 37.5423 43.0447 37.8232 39.3886C37.8232 39.3886 37.2831 40.7746 31.4373 41.8743C24.8421 43.1159 16.7063 42.9712 11.8824 42.1747C11.8824 42.1751 12.8707 42.9932 17.9486 43.3197Z" fill="#0074BD"/>
</svg>
