<svg width="44" height="44" viewBox="0 0 44 44" fill="none" xmlns="http://www.w3.org/2000/svg">
<path d="M0.484009 0.484009H43.516V43.5164H0.484009V0.484009Z" fill="#F0DB4F"/>
<path d="M39.9943 33.253C39.6791 31.2898 38.3989 29.6409 34.607 28.1033C33.2898 27.4979 31.8213 27.0645 31.3837 26.0662C31.2283 25.4853 31.2077 25.158 31.306 24.8064C31.5882 23.6651 32.9505 23.3093 34.0302 23.6366C34.7256 23.8697 35.3839 24.4056 35.7809 25.2605C37.6379 24.058 37.6341 24.0659 38.9307 23.2396C38.456 22.5036 38.2027 22.164 37.8919 21.8491C36.7751 20.6016 35.2533 19.9592 32.8195 20.0083L31.5518 20.1723C30.337 20.4793 29.1792 21.1169 28.5003 21.9718C26.4633 24.2832 27.0442 28.3284 29.523 29.9932C31.965 31.8261 35.5523 32.2431 36.0106 33.957C36.4564 36.0553 34.4685 36.7345 32.4926 36.4932C31.0365 36.1903 30.2266 35.4503 29.3511 34.1045C27.7396 35.0371 27.7396 35.0371 26.0827 35.9899C26.4756 36.849 26.8885 37.2377 27.5471 37.982C30.6642 41.1438 38.4646 40.9884 39.8637 36.2027C39.9204 36.0384 40.2971 34.9425 39.9943 33.253ZM23.8776 20.2617H19.8526L19.8361 30.6677C19.8361 32.8807 19.9506 34.9095 19.5907 35.5314C19.0018 36.7544 17.4759 36.6028 16.7805 36.3657C16.0727 36.0178 15.7128 35.5231 15.2958 34.8239C15.1814 34.6232 15.0954 34.4678 15.0666 34.4558L11.7941 36.4598C12.3382 37.5767 13.1398 38.5461 14.1666 39.1758C15.7004 40.0964 17.7619 40.3786 19.9179 39.8836C21.3211 39.4749 22.5318 38.6282 23.1657 37.3395C24.0821 35.65 23.8855 33.605 23.8772 31.3431C23.8978 27.653 23.8776 23.9635 23.8776 20.2617Z" fill="#323330"/>
</svg>
