<svg width="44" height="44" viewBox="0 0 44 44" fill="none" xmlns="http://www.w3.org/2000/svg">
<path d="M40.1626 37.9518H3.7935C2.38401 37.9518 1.19647 36.8004 1.19647 35.3533V9.07762C1.19647 7.66813 2.34689 6.48059 3.79408 6.48059H40.1632C41.5743 6.48059 42.7617 7.63101 42.7617 9.07842V35.3541C42.7617 36.7996 41.6118 37.9509 40.1632 37.9509L40.1626 37.9518Z" fill="#E3E3E3"/>
<path d="M6.39202 37.9519L21.9421 25.4444L22.0532 24.7765L6.02088 13.235L5.98364 37.3956L6.39202 37.9524V37.9519Z" fill="#231F20" fill-opacity="0.098"/>
<path d="M3.79419 37.9518C2.34689 37.9518 1.19647 36.8004 1.19647 35.3533V9.04174C1.19647 7.59398 2.34689 7.33411 3.79408 7.33411C5.24149 7.33422 6.39191 7.63099 6.39191 9.04117V37.9512H3.79408L3.79419 37.9518Z" fill="#D54B3D"/>
<path d="M3.79419 7.70533C5.64975 7.70533 6.02089 8.26209 6.02089 9.04126V37.579H3.79419C2.56952 37.579 1.56761 36.5778 1.56761 35.3529L1.56749 9.04126C1.56749 8.2244 1.93863 7.70488 3.79419 7.70488V7.70533ZM3.79419 7.33431C2.34689 7.33431 1.19647 7.63108 1.19647 9.04138V35.3529C1.19647 36.8 2.34689 37.9514 3.79408 37.9514H6.39191V9.04138C6.39191 7.5935 5.24149 7.33374 3.79408 7.33374L3.79419 7.33431Z" fill="#D72B27"/>
<path d="M40.1626 37.9518H37.5657V8.96658C37.5657 7.51974 38.7155 7.33423 40.1626 7.33423C41.6113 7.33423 42.7611 7.51974 42.7611 8.96704V35.3913C42.7611 36.8008 41.6113 37.9523 40.1626 37.9523V37.9518Z" fill="#D54B3D"/>
<path d="M40.1626 7.70525C41.8333 7.70525 42.3903 8.03926 42.3903 8.96704V35.3913C42.3903 36.6146 41.3875 37.6175 40.1626 37.6175H37.9365V8.96704C37.9365 8.00259 38.4935 7.70582 40.1626 7.70582V7.70525ZM40.1626 7.33423C38.7155 7.33423 37.5657 7.51974 37.5657 8.96704V37.9883H40.1626C41.6113 37.9883 42.7611 36.8384 42.7611 35.3913V8.96704C42.7611 7.5202 41.6113 7.33469 40.1626 7.33469V7.33423Z" fill="#D72B27"/>
<path d="M21.9421 25.4444L2.31057 11.1937C1.15935 10.3401 0.825338 8.70731 1.67887 7.55678C2.5324 6.40636 4.20257 6.1466 5.39011 7.00013L21.9773 19.0614L38.6789 6.85175C39.8303 5.99821 41.4636 6.25797 42.3161 7.44552C43.1703 8.59605 42.9105 10.2289 41.7232 11.0824L21.943 25.4444H21.9421Z" fill="#D54B3D"/>
<path d="M40.1626 6.7033C40.8682 6.7033 41.5361 7.03731 41.982 7.63108C42.6875 8.63311 42.4637 10.0062 41.4985 10.7485L21.9421 24.9986L2.5326 10.8969C1.53034 10.1547 1.27058 8.74448 1.97573 7.77958C2.38399 7.22293 3.08913 6.8518 3.83129 6.8518C4.31369 6.8518 4.7962 7.00018 5.16745 7.29707L21.7187 19.3211L21.9424 19.4695L22.1646 19.3211L38.8269 7.11156C39.2352 6.85168 39.6811 6.7033 40.1629 6.7033H40.1626ZM40.1626 6.33228C39.6432 6.33228 39.0863 6.48066 38.6421 6.81467L21.9421 19.0243L5.3533 6.96317C4.90757 6.62916 4.35093 6.48066 3.79417 6.48066C2.97765 6.48066 2.16135 6.8518 1.64172 7.55694C0.825312 8.70724 1.15932 10.3403 2.30974 11.1938L21.9413 25.4821L41.684 11.0826C42.8337 10.229 43.0935 8.63322 42.2785 7.44568C41.7575 6.70341 40.9784 6.33228 40.1618 6.33228H40.1626Z" fill="#D72B27"/>
</svg>
