<svg width="44" height="44" viewBox="0 0 44 44" fill="none" xmlns="http://www.w3.org/2000/svg">
<path d="M38.765 10.4273L23.6067 1.6256C22.6507 1.0811 21.406 1.0811 20.4425 1.6256L5.12222 10.4273C4.13566 10.9948 3.4375 12.0615 3.4375 13.2024V30.7825C3.4375 31.9234 4.15388 32.9904 5.14044 33.561L9.18809 35.86C11.1227 36.8129 11.8064 36.8129 12.6868 36.8129C15.5513 36.8129 17.1875 35.0807 17.1875 32.0595V14.7036C17.1875 14.4585 17.06 14.0938 16.8193 14.0938H14.8864C14.6417 14.0938 14.0938 14.4585 14.0938 14.7032V32.0592C14.0938 33.3984 12.8824 34.7311 10.6184 33.5992L6.43603 31.1884C6.29028 31.1094 6.1875 30.9502 6.1875 30.7825V13.2024C6.1875 13.0367 6.37828 12.8703 6.52506 12.7854L21.7958 3.99885C21.9385 3.91807 22.1482 3.91807 22.2905 3.99885L37.3749 12.7834C37.5193 12.8703 37.4684 13.0316 37.4684 13.2024V30.7825C37.4684 30.9502 37.5313 31.1135 37.3887 31.1943L22.2341 39.986C22.1042 40.0641 21.9429 40.0641 21.8006 39.986L17.9138 37.6661C17.7966 37.598 17.6574 37.5736 17.545 37.6365C16.4636 38.2494 16.2642 38.3309 15.2498 38.6825C15.0002 38.7695 14.6321 38.9204 15.3907 39.3456L20.4775 42.3548C20.9632 42.6353 21.5141 42.783 22.0749 42.7831C22.6394 42.7831 23.1921 42.6367 23.6792 42.3548L38.7647 33.561C39.7512 32.9863 40.2188 31.9234 40.2188 30.7825V13.2024C40.2188 12.0615 39.7513 10.9976 38.765 10.4273ZM26.7816 27.9967C22.7508 27.9967 21.8628 26.8847 21.5669 24.8803C21.5325 24.6644 21.3493 24.4063 21.1296 24.4063H19.1596C18.9159 24.4063 18.7199 24.7019 18.7199 24.9446C18.7199 27.511 20.1152 30.6206 26.7819 30.6206C31.6078 30.6206 34.3747 28.7454 34.3747 25.4268C34.3747 22.1365 32.1516 21.273 27.4715 20.6535C22.7408 20.0283 22.2602 19.7123 22.2602 18.6041C22.2602 17.6904 22.6672 16.4718 26.17 16.4718C29.2999 16.4718 30.4535 17.1435 30.9282 19.2531C30.9688 19.4514 31.1499 19.5938 31.3545 19.5938H33.3324C33.4541 19.5938 33.5703 19.5446 33.6555 19.4576C33.738 19.3641 33.7817 19.2469 33.7707 19.1211C33.4644 15.4883 31.0509 13.7954 26.1697 13.7954C21.8278 13.7954 19.2376 15.6289 19.2376 18.7024C19.2376 22.0361 21.8147 22.9573 25.9827 23.3695C30.9688 23.8583 31.3565 24.5871 31.3565 25.5678C31.3565 27.2711 29.9891 27.9967 26.7816 27.9967Z" fill="#83CD29"/>
</svg>
