<svg width="44" height="44" viewBox="0 0 44 44" fill="none" xmlns="http://www.w3.org/2000/svg">
<path d="M22 11.3571C10.4019 11.3571 0.998932 16.1222 0.998932 22C0.998932 27.8778 10.4019 32.6428 22 32.6428C33.5981 32.6428 43.0011 27.8778 43.0011 22C43.0011 16.1222 33.5981 11.3571 22 11.3571ZM16.5354 24.0735C16.0342 24.5424 15.4777 24.7359 14.8648 24.9353C14.2519 25.135 13.4719 25.0937 12.5235 25.0937H10.374L9.77831 28.5312H7.26859L9.50812 16.8437H14.3344C15.7864 16.8437 16.8455 17.2614 17.5113 18.0235C18.1772 18.7856 18.3772 19.8674 18.1118 21.2331C18.0022 21.7958 17.8176 22.319 17.557 22.7851C17.287 23.2661 16.9422 23.701 16.5354 24.0735ZM23.8611 25.0937L24.8514 20.1369C24.9642 19.5566 24.9229 19.1256 24.7273 18.9148C24.5314 18.7038 24.1147 18.5625 23.4778 18.5625H21.4875L20.2049 25.0937H17.7148L19.9543 13.75H22.4445L21.8491 16.8437H24.0673C25.4633 16.8437 26.4258 17.1239 26.9555 17.6106C27.4852 18.0974 27.644 18.7643 27.4323 19.8546L26.3904 25.0937H23.8611ZM37.7001 21.2513C37.5908 21.814 37.4058 22.3283 37.1456 22.7941C36.8851 23.2605 36.5447 23.6871 36.1243 24.0735C35.6232 24.5424 35.0663 24.7359 34.4537 24.9353C33.8412 25.135 33.0605 25.0937 32.1121 25.0937H29.9626L29.3672 28.5312H26.8575L29.0967 16.8437H33.9233C35.3753 16.8437 36.4344 17.2614 37.0999 18.0235C37.7651 18.7856 37.9655 19.8859 37.7001 21.2513ZM32.9722 18.5625H31.2531L30.3157 23.375H31.8426C32.8539 23.375 33.6081 23.2753 34.1031 22.8937C34.5988 22.5129 34.9326 21.9216 35.1062 21.0303C35.2725 20.174 35.1969 19.5061 34.8793 19.1541C34.5613 18.8021 33.9257 18.5625 32.9722 18.5625ZM13.3836 18.5625H11.6641L10.7267 23.375H12.2533C13.265 23.375 14.0188 23.2753 14.5142 22.8937C15.0095 22.5129 15.3436 21.9216 15.5169 21.0303C15.6832 20.174 15.6076 19.5061 15.29 19.1541C14.9724 18.8021 14.3371 18.5625 13.3836 18.5625Z" fill="#6181B6"/>
</svg>
