<svg width="52" height="52" viewBox="0 0 52 52" fill="none" xmlns="http://www.w3.org/2000/svg">
<path fill-rule="evenodd" clip-rule="evenodd" d="M26.4007 43.1423C28.8007 41.9597 41.1667 35.3096 41.1667 23.8333C41.1667 15.457 34.3763 8.66663 26 8.66663C17.6237 8.66663 10.8333 15.457 10.8333 23.8333C10.8333 35.3096 23.1994 41.9597 25.5993 43.1423C25.8548 43.2682 26.1452 43.2682 26.4007 43.1423ZM26 30.3333C29.5899 30.3333 32.5 27.4231 32.5 23.8333C32.5 20.2434 29.5899 17.3333 26 17.3333C22.4102 17.3333 19.5 20.2434 19.5 23.8333C19.5 27.4231 22.4102 30.3333 26 30.3333Z" fill="#F7F7F7"/>
</svg>
