<svg width="32" height="32" viewBox="0 0 32 32" fill="none" xmlns="http://www.w3.org/2000/svg">
<path d="M19.255 7.54497C19.5325 8.72122 20.5888 9.59747 21.85 9.59747C23.3225 9.59747 24.5163 8.40372 24.5163 6.93122C24.5163 5.45872 23.3225 4.26497 21.85 4.26497C20.5625 4.26497 19.4888 5.17747 19.2388 6.39122C17.0825 6.62247 15.3988 8.45122 15.3988 10.6675C15.3988 10.6725 15.3988 10.6762 15.3988 10.6812C13.0538 10.78 10.9125 11.4475 9.21251 12.5012C8.58125 12.0125 7.78876 11.7212 6.92876 11.7212C4.86501 11.7212 3.1925 13.3937 3.1925 15.4575C3.1925 16.955 4.0725 18.245 5.34376 18.8412C5.4675 23.1787 10.1938 26.6675 16.0075 26.6675C21.8213 26.6675 26.5538 23.175 26.6713 18.8337C27.9325 18.2337 28.805 16.9475 28.805 15.4587C28.805 13.395 27.1325 11.7225 25.0688 11.7225C24.2125 11.7225 23.4238 12.0112 22.7938 12.4962C21.0788 11.435 18.9138 10.7675 16.545 10.6787C16.545 10.675 16.545 10.6725 16.545 10.6687C16.545 9.08122 17.725 7.76372 19.255 7.54747V7.54497ZM9.06251 17.8287C9.12501 16.4737 10.025 15.4337 11.0713 15.4337C12.1175 15.4337 12.9175 16.5325 12.855 17.8875C12.7925 19.2425 12.0113 19.735 10.9638 19.735C9.91626 19.735 9.00001 19.1837 9.06251 17.8287ZM20.945 15.4337C21.9925 15.4337 22.8925 16.4737 22.9538 17.8287C23.0163 19.1837 22.0988 19.735 21.0525 19.735C20.0063 19.735 19.2238 19.2437 19.1613 17.8875C19.0988 16.5325 19.8975 15.4337 20.945 15.4337ZM19.7 20.9637C19.8963 20.9837 20.0213 21.1875 19.945 21.37C19.3013 22.9087 17.7813 23.99 16.0075 23.99C14.2338 23.99 12.715 22.9087 12.07 21.37C11.9938 21.1875 12.1188 20.9837 12.315 20.9637C13.465 20.8475 14.7088 20.7837 16.0075 20.7837C17.3063 20.7837 18.5488 20.8475 19.7 20.9637Z" fill="white"/>
</svg>
