<svg width="37" height="44" viewBox="0 0 37 44" fill="none" xmlns="http://www.w3.org/2000/svg">
<path fill-rule="evenodd" clip-rule="evenodd" d="M36.4128 4.6242C36.4263 4.55455 36.4331 4.48447 36.4331 4.41401C36.4331 1.97622 28.2773 0 18.2166 0C8.15583 0 0 1.97622 0 4.41401C0 4.48447 0.00681361 4.55455 0.0202899 4.6242H0V39.1656V39.2357H0.0018742C0.143068 41.8733 8.24398 44 18.2166 44C28.1891 44 36.2901 41.8733 36.4312 39.2357H36.4331V39.1656V4.6242H36.4128Z" fill="#E0234E"/>
<path d="M7.43517 32.3571C6.87074 32.3571 6.33027 32.3145 5.81376 32.2293C5.30257 32.1494 4.85795 32.0536 4.47989 31.9418C4.10182 31.8246 3.83558 31.7181 3.68116 31.6223L4.04857 29.306C4.24559 29.4178 4.51184 29.5323 4.8473 29.6494C5.18277 29.7666 5.55284 29.8677 5.95753 29.9529C6.36754 30.0328 6.78022 30.0727 7.19556 30.0727C7.75466 30.0727 8.15935 29.9929 8.40962 29.8331C8.66521 29.6734 8.79301 29.4178 8.79301 29.0663C8.79301 28.8107 8.7158 28.5951 8.56138 28.4194C8.40696 28.2383 8.15136 28.0546 7.7946 27.8682C7.44316 27.6819 6.97191 27.4476 6.38085 27.1654C5.88032 26.9258 5.41972 26.6435 4.99906 26.3187C4.5784 25.9886 4.24027 25.5945 3.98468 25.1366C3.72908 24.6733 3.60129 24.1249 3.60129 23.4912C3.60129 22.9481 3.70246 22.4742 3.9048 22.0695C4.11247 21.6595 4.40268 21.3187 4.77542 21.0471C5.15348 20.7756 5.60077 20.5732 6.11728 20.4401C6.63378 20.3016 7.2062 20.2324 7.83454 20.2324C8.72911 20.2324 9.45861 20.315 10.023 20.48C10.5875 20.6451 10.9762 20.7915 11.1892 20.9193L10.7259 23.1398C10.4863 22.9534 10.1162 22.783 9.61569 22.6286C9.12048 22.4689 8.61196 22.389 8.09013 22.389C7.71739 22.389 7.41121 22.4316 7.17159 22.5168C6.93198 22.5967 6.75359 22.7111 6.63645 22.8602C6.5193 23.0093 6.46073 23.1824 6.46073 23.3794C6.46073 23.619 6.52995 23.832 6.6684 24.0184C6.81217 24.1994 7.03315 24.3805 7.33134 24.5615C7.63485 24.7372 8.02623 24.9343 8.50547 25.1526C9.01665 25.3815 9.47192 25.6158 9.87129 25.8555C10.276 26.0951 10.6194 26.356 10.9016 26.6382C11.1839 26.9204 11.3969 27.2426 11.5406 27.6047C11.6897 27.9614 11.7643 28.3741 11.7643 28.8427C11.7643 29.5509 11.5965 30.1686 11.2611 30.6957C10.9309 31.2229 10.4437 31.6329 9.7994 31.9258C9.1551 32.2133 8.36702 32.3571 7.43517 32.3571Z" fill="#F7F7F7"/>
<path d="M21.8862 34.9929C21.0077 34.9929 20.2994 34.9024 19.7616 34.7213C19.2238 34.5403 18.8005 34.2421 18.4917 33.8267C18.1828 33.4167 17.9299 32.8629 17.7329 32.1654L19.1546 31.798H19.9693C20.0598 32.1121 20.1876 32.3438 20.3527 32.4929C20.5178 32.6473 20.7494 32.7485 21.0476 32.7964C21.3458 32.8443 21.7372 32.8683 22.2217 32.8683C22.4454 32.8683 22.6663 32.8443 22.8847 32.7964C23.103 32.7485 23.292 32.6979 23.4518 32.6446V34.6414C23.308 34.7107 23.1056 34.7852 22.8447 34.8651C22.5838 34.9503 22.2643 34.9929 21.8862 34.9929ZM18.5316 32.3571C17.3601 32.3784 16.3591 32.1414 15.5284 31.6462C14.703 31.1457 14.0747 30.4348 13.6434 29.5136C13.2174 28.5871 13.0151 27.4955 13.0364 26.2388C13.063 24.8331 13.3212 23.6962 13.8111 22.8283C14.3063 21.955 14.9799 21.3134 15.8319 20.9034C16.6839 20.488 17.6583 20.2644 18.7552 20.2324C19.8788 20.2005 20.8426 20.4294 21.6466 20.9193C22.4507 21.4039 23.063 22.1041 23.4837 23.02C23.9097 23.9359 24.112 25.0195 24.0907 26.2708C24.0641 27.6766 23.8138 28.8241 23.3399 29.7133C22.866 30.6026 22.2164 31.2602 21.391 31.6862C20.5657 32.1121 19.6125 32.3358 18.5316 32.3571ZM18.5795 30.2165C19.3463 30.2165 19.9507 29.9077 20.3926 29.29C20.8346 28.667 21.0556 27.634 21.0556 26.1909C21.0556 25.4454 20.9704 24.7905 20.8 24.2261C20.6296 23.6616 20.3713 23.2223 20.0252 22.9082C19.6791 22.594 19.2398 22.4369 18.7073 22.4369C18.2228 22.4369 17.7808 22.5567 17.3814 22.7963C16.9821 23.036 16.6626 23.438 16.423 24.0024C16.1887 24.5668 16.0715 25.3389 16.0715 26.3187C16.0715 27.0748 16.1647 27.7458 16.3511 28.3315C16.5374 28.9172 16.8143 29.3778 17.1818 29.7133C17.5545 30.0488 18.0204 30.2165 18.5795 30.2165Z" fill="#F7F7F7"/>
<path d="M26.1547 32.2293V20.3602H29.094V29.8331H33.1036V32.2293H26.1547Z" fill="#F7F7F7"/>
</svg>
